<svg width="86" height="25" viewBox="0 0 86 25" fill="none" xmlns="http://www.w3.org/2000/svg">
<path d="M19.2344 12.1094V21.125C18.8802 21.5521 18.3333 22.0156 17.5938 22.5156C16.8542 23.0052 15.901 23.4271 14.7344 23.7812C13.5677 24.1354 12.1562 24.3125 10.5 24.3125C9.03125 24.3125 7.69271 24.0729 6.48438 23.5938C5.27604 23.1042 4.23438 22.3906 3.35938 21.4531C2.49479 20.5156 1.82812 19.3698 1.35938 18.0156C0.890625 16.651 0.65625 15.0938 0.65625 13.3438V11.9219C0.65625 10.1719 0.880208 8.61458 1.32812 7.25C1.78646 5.88542 2.4375 4.73438 3.28125 3.79688C4.125 2.85938 5.13021 2.14583 6.29688 1.65625C7.46354 1.16667 8.76042 0.921875 10.1875 0.921875C12.1667 0.921875 13.7917 1.24479 15.0625 1.89062C16.3333 2.52604 17.3021 3.41146 17.9688 4.54688C18.6458 5.67188 19.0625 6.96354 19.2188 8.42188H14.6719C14.5573 7.65104 14.3385 6.97917 14.0156 6.40625C13.6927 5.83333 13.2292 5.38542 12.625 5.0625C12.0312 4.73958 11.2604 4.57812 10.3125 4.57812C9.53125 4.57812 8.83333 4.73958 8.21875 5.0625C7.61458 5.375 7.10417 5.83854 6.6875 6.45312C6.27083 7.06771 5.95312 7.82812 5.73438 8.73438C5.51562 9.64062 5.40625 10.6927 5.40625 11.8906V13.3438C5.40625 14.5312 5.52083 15.5833 5.75 16.5C5.97917 17.4062 6.31771 18.1719 6.76562 18.7969C7.22396 19.4115 7.78646 19.875 8.45312 20.1875C9.11979 20.5 9.89583 20.6562 10.7812 20.6562C11.5208 20.6562 12.1354 20.5938 12.625 20.4688C13.125 20.3438 13.526 20.1927 13.8281 20.0156C14.1406 19.8281 14.3802 19.651 14.5469 19.4844V15.4531H10.2656V12.1094H19.2344ZM27.7031 1.25V24H23.0156V1.25H27.7031ZM36.7656 10.9688V14.625H26.4219V10.9688H36.7656ZM37.8594 1.25V4.92188H26.4219V1.25H37.8594ZM55.2031 20.3438V24H43.75V20.3438H55.2031ZM45.2656 1.25V24H40.5781V1.25H45.2656ZM62.875 1.25V24H58.2031V1.25H62.875ZM71.4062 1.25L75.6875 9.1875L79.9688 1.25H85.3281L78.7188 12.5312L85.5 24H80.0938L75.6875 15.9062L71.2812 24H65.8438L72.6406 12.5312L66.0156 1.25H71.4062Z" fill="#667eb9"/>
</svg>
